<svg xmlns="http://www.w3.org/2000/svg" width="25" height="24" viewBox="0 0 25 24" fill="currentColor">
    <path d="M12.6592 0C15.8418 0 18.894 1.26428 21.1445 3.51472C23.3949 5.76516 24.6592 8.8174 24.6592 12C24.6592 15.1826 23.3949 18.2348 21.1445 20.4853C18.894 22.7357 15.8418 24 12.6592 24C9.47658 24 6.42434 22.7357 4.1739 20.4853C1.92346 18.2348 0.65918 15.1826 0.65918 12C0.65918 8.8174 1.92346 5.76516 4.1739 3.51472C6.42434 1.26428 9.47658 0 12.6592 0V0ZM12.6592 1.5C10.873 1.4994 9.11617 1.95448 7.5549 2.82219C5.99364 3.6899 4.67953 4.94155 3.73689 6.45876C2.79425 7.97596 2.25424 9.70856 2.16794 11.4927C2.08163 13.2768 2.45189 15.0534 3.24368 16.6545C3.55568 15.8505 3.71018 14.589 3.71018 12.8745C3.71018 8.169 7.95368 4.7295 11.9467 6.45C11.9467 6.45 13.5367 5.487 14.8762 7.431C15.7612 8.0955 18.1882 8.5785 18.8842 8.901C19.4167 9.147 21.7162 10.032 20.2372 12.558C17.9512 13.2345 15.5782 14.6025 13.5382 13.599C13.5382 13.599 14.2777 15.027 19.8082 13.1925C19.3222 13.8375 18.6067 14.577 17.5957 15.42C14.3032 18.168 13.6807 21.3555 13.5652 22.4595C16.2584 22.2223 18.7563 20.9554 20.5388 18.9225C22.3213 16.8897 23.2509 14.2477 23.1342 11.5465C23.0174 8.84542 21.8632 6.29344 19.912 4.42201C17.9607 2.55057 15.3628 1.50392 12.6592 1.5ZM17.9092 10.5C17.7103 10.5 17.5195 10.579 17.3788 10.7197C17.2382 10.8603 17.1592 11.0511 17.1592 11.25C17.1592 11.4489 17.2382 11.6397 17.3788 11.7803C17.5195 11.921 17.7103 12 17.9092 12C18.1081 12 18.2989 11.921 18.4395 11.7803C18.5802 11.6397 18.6592 11.4489 18.6592 11.25C18.6592 11.0511 18.5802 10.8603 18.4395 10.7197C18.2989 10.579 18.1081 10.5 17.9092 10.5ZM10.4092 7.5C9.81244 7.5 9.24015 7.73705 8.81819 8.15901C8.39623 8.58097 8.15918 9.15326 8.15918 9.75C8.15918 10.3467 8.39623 10.919 8.81819 11.341C9.24015 11.7629 9.81244 12 10.4092 12C11.0059 12 11.5782 11.7629 12.0002 11.341C12.4221 10.919 12.6592 10.3467 12.6592 9.75C12.6592 9.15326 12.4221 8.58097 12.0002 8.15901C11.5782 7.73705 11.0059 7.5 10.4092 7.5ZM10.4092 8.25C10.807 8.25 11.1885 8.40804 11.4698 8.68934C11.7511 8.97064 11.9092 9.35218 11.9092 9.75C11.9092 10.1478 11.7511 10.5294 11.4698 10.8107C11.1885 11.092 10.807 11.25 10.4092 11.25C10.0114 11.25 9.62982 11.092 9.34852 10.8107C9.06721 10.5294 8.90918 10.1478 8.90918 9.75C8.90918 9.35218 9.06721 8.97064 9.34852 8.68934C9.62982 8.40804 10.0114 8.25 10.4092 8.25Z"  />
</svg>