<svg t="1636908633564" class="icon" viewBox="0 0 1024 1024" version="1.1" xmlns="http://www.w3.org/2000/svg" p-id="1056" width="40" height="40">
    <path d="M503.932878 516.595512m-499.512195 0a499.512195 499.512195 0 1 0 999.02439 0 499.512195 499.512195 0 1 0-999.02439 0Z" fill="#E0EFDD" p-id="1057"></path>
    <path d="M759.608195 418.840976L488.073366 698.517854c-13.836488 14.236098-31.993756 21.27922-50.126049 21.179317a69.00761 69.00761 0 0 1-50.126049-21.179317L244.586146 550.961951a73.977756 73.977756 0 0 1 0-102.4 68.882732 68.882732 0 0 1 99.427903 0l93.908292 96.705561 222.257952-228.876488a68.882732 68.882732 0 0 1 99.427902 0 73.95278 73.95278 0 0 1 0 102.4z" fill="#2A8B54" p-id="1058"></path>
</svg>