<svg width="22" height="25" viewBox="0 0 22 25" fill="currentColor" xmlns="http://www.w3.org/2000/svg">
    <path d="M19.0518 3.97561e-05C19.7194 0.00483414 20.3601 0.263358 20.8442 0.723219C21.3284 1.18308 21.6196 1.80988 21.659 2.47659V24.0107L18.9823 21.7364L17.5122 20.3975L15.9085 18.999L16.5782 21.2046H2.54042C2.21006 21.2125 1.88147 21.1542 1.57393 21.0333C1.26638 20.9123 0.986069 20.7312 0.749441 20.5004C0.512813 20.2696 0.324632 19.9939 0.195938 19.6894C0.067244 19.3849 0.000628645 19.0578 0 18.7272V2.47569C0.0149026 1.81157 0.290023 1.17991 0.766066 0.716825C1.24211 0.253742 1.88096 -0.00367987 2.54493 3.97561e-05H19.0446H19.0518ZM12.934 5.68807H12.9042L12.7021 5.8885C13.8257 6.17281 14.8748 6.69635 15.7777 7.42337C14.6086 6.82085 13.34 6.43541 12.0334 6.28576C11.2112 6.18601 10.3801 6.18601 9.55793 6.28576H9.35759C8.38698 6.37541 7.43763 6.62368 6.54733 7.02069C6.08076 7.22384 5.81273 7.35656 5.81273 7.35656C6.73603 6.58196 7.84038 6.05392 9.02278 5.82169L8.88741 5.68626C7.62474 5.73213 6.40865 6.17506 5.41204 6.95207C4.26935 9.11964 3.65114 11.5253 3.60713 13.9754C4.0318 14.5641 4.59651 15.0375 5.25014 15.3528C5.90378 15.6681 6.62568 15.8153 7.35052 15.7812C7.35052 15.7812 7.75031 15.2476 8.15551 14.779C7.30642 14.5607 6.5538 14.0666 6.01579 13.3741C6.13123 13.4343 6.24302 13.5012 6.3506 13.5746H6.41016C6.42165 13.5749 6.43293 13.5778 6.44321 13.5829C6.4535 13.5881 6.46254 13.5954 6.46972 13.6044V13.6107C6.47678 13.6198 6.48579 13.6272 6.4961 13.6324C6.50642 13.6375 6.51776 13.6403 6.52929 13.6405C6.85959 13.7768 7.18898 13.9113 7.45972 14.0404C8.03728 14.2878 8.64139 14.4677 9.26012 14.5767C10.3235 14.7451 11.4068 14.7451 12.4702 14.5767C13.0869 14.4599 13.6902 14.2805 14.2706 14.0413C14.7494 13.8212 15.2157 13.5749 15.6676 13.3037C15.1133 14.0107 14.3357 14.5088 13.462 14.7167C13.7923 15.1826 14.257 15.7171 14.257 15.7171C14.9869 15.7158 15.7084 15.5615 16.375 15.264C17.0415 14.9665 17.6383 14.5324 18.1268 13.9899C18.0829 11.5379 17.4627 9.13066 16.3164 6.96291C15.3306 6.19482 14.1301 5.75302 12.8817 5.6989L12.9376 5.67904L12.934 5.68807ZM13.1019 10.1031C13.3692 10.0892 13.6346 10.1557 13.8637 10.2942C14.0928 10.4326 14.2753 10.6366 14.3874 10.8798C14.4996 11.1229 14.5363 11.3941 14.4929 11.6584C14.4495 11.9227 14.3279 12.1678 14.1439 12.3623C13.9598 12.5568 13.7217 12.6916 13.4604 12.7494C13.199 12.8072 12.9263 12.7853 12.6775 12.6865C12.4287 12.5877 12.2151 12.4167 12.0645 12.1953C11.9138 11.974 11.8329 11.7125 11.8321 11.4447C11.8272 11.2731 11.8562 11.1023 11.9174 10.9419C11.9785 10.7816 12.0708 10.6349 12.1887 10.5103C12.3067 10.3856 12.448 10.2855 12.6047 10.2156C12.7614 10.1458 12.9304 10.1075 13.1019 10.1031ZM8.55891 10.1031C8.8261 10.0901 9.09105 10.1574 9.31963 10.2965C9.5482 10.4355 9.72992 10.6398 9.84137 10.8831C9.95282 11.1264 9.98889 11.3975 9.94493 11.6615C9.90097 11.9255 9.77901 12.1702 9.59474 12.3643C9.41048 12.5583 9.17237 12.6926 8.91109 12.75C8.64981 12.8074 8.37734 12.7852 8.12878 12.6863C7.88023 12.5873 7.66699 12.4162 7.51654 12.1949C7.36609 11.9736 7.28532 11.7123 7.28464 11.4447C7.27923 11.2728 7.30787 11.1016 7.36891 10.9408C7.42995 10.78 7.52218 10.6329 7.64029 10.5079C7.7584 10.383 7.90005 10.2826 8.05709 10.2127C8.21413 10.1427 8.38345 10.1046 8.5553 10.1004L8.55891 10.1031Z" />
</svg>