<svg class="icon" viewBox="0 0 1024 1024" version="1.1" xmlns="http://www.w3.org/2000/svg" width="24" height="24" fill="currentColor">
    <path d="M965.5296 187.7504H463.5136l-35.6864-59.4944A53.6064 53.6064 0 0 0 382.1056 102.4H90.88A53.4016 53.4016 0 0 0 37.5296 155.7504v704a53.4016 53.4016 0 0 0 53.3504 53.2992h874.6496a53.4016 53.4016 0 0 0 53.3504-53.2992V241.0496a53.4016 53.4016 0 0 0-53.3504-53.2992z m0 42.6496a10.6496 10.6496 0 0 1 10.7008 10.6496v75.776a53.504 53.504 0 0 0-10.7008-1.0752h-419.1744a10.752 10.752 0 0 1-9.1648-5.2224L489.0624 230.4h476.4672z"></path>
</svg>