<svg xmlns="http://www.w3.org/2000/svg" width="25" height="25" viewBox="0 0 25 25" fill="none">
    <path d="M23.2866 12.4941C23.2866 18.3461 18.4028 23.1366 12.3202 23.1366C6.23755 23.1366 1.35376 18.3461 1.35376 12.4941C1.35376 6.64206 6.23755 1.85156 12.3202 1.85156C18.4028 1.85156 23.2866 6.64206 23.2866 12.4941Z" stroke="#D54949" stroke-width="2" />
    <path d="M13.9632 9.10859L13.9631 9.10858L13.9627 9.11165L13.3694 12.9596C13.2781 13.4904 12.8238 13.8398 12.378 13.8398C12.154 13.8398 11.9034 13.7519 11.7097 13.5967C11.517 13.4423 11.3878 13.2278 11.3878 12.9753V12.9678L11.3866 12.9604L10.7936 9.11413C10.7017 8.20526 11.4527 7.2998 12.378 7.2998C13.3165 7.2998 14.1479 8.12036 13.9632 9.10859ZM13.3977 15.3545C13.5376 15.4907 13.6273 15.623 13.6832 15.7752C13.7395 15.9288 13.7637 16.1085 13.7637 16.343C13.7637 16.7121 13.669 17.0674 13.3977 17.3314C13.1259 17.5958 12.7591 17.6886 12.378 17.6886C11.9968 17.6886 11.63 17.5958 11.3582 17.3314C11.2183 17.1952 11.1286 17.0629 11.0727 16.9107C11.0164 16.7571 10.9922 16.5774 10.9922 16.343C10.9922 15.9738 11.0869 15.6185 11.3582 15.3545C11.4981 15.2185 11.6345 15.1308 11.7919 15.0761C11.9507 15.0209 12.1365 14.9973 12.378 14.9973C12.6194 14.9973 12.8052 15.0209 12.964 15.0761C13.1214 15.1308 13.2578 15.2185 13.3977 15.3545Z" fill="#D54949" stroke="#D54949" stroke-width="0.195312" />
</svg>