<svg viewBox="0 0 1075 1024" version="1.1" xmlns="http://www.w3.org/2000/svg"  width="24" height="24" fill="currentColor">
    <path d="M524.897676 0C235.005885 0 0 235.005885 0 524.897676c0 231.985112 150.373047 428.744941 359.011169 498.171516 26.214164 4.710358 34.508489-10.751903 34.508489-24.678178 0-12.492688 0.255998-47.308374 0-91.135179-145.969886 31.692515-176.228814-69.119378-176.228814-69.119378-23.910185-60.722653-58.213876-76.799309-58.213876-76.799309-47.717971-32.614106 3.532768-31.897313 3.532769-31.897313 52.633126 3.583968 80.383277 54.015514 80.383276 54.015514 46.847578 80.229678 122.878894 57.036287 152.728226 43.622007 4.863956-33.842895 18.380635-57.087486 33.382099-70.092169-116.581351-13.31188-239.101848-58.316275-239.101848-259.581664 0-57.241085 20.479816-104.088663 54.066713-140.798732-5.375952-13.209481-23.449389-66.6618 5.119954-138.90435 0 0 44.134003-14.131073 144.331501 53.861915a502.625876 502.625876 0 0 1 131.429217-17.715041c44.543599 0.204798 89.496795 5.990346 131.480417 17.715041 100.197498-67.941789 144.177902-53.861915 144.177903-53.861915 28.671742 72.24255 10.598305 125.694869 5.222353 138.90435 33.586898 36.71007 54.015514 83.557648 54.015513 140.798732 0 201.777384-122.776495 246.116185-239.716242 259.069669 18.790231 16.281453 35.942077 47.76917 35.942076 96.767129v145.304292c0 14.028674 8.499124 29.542134 35.122884 24.47338a525.051275 525.051275 0 0 0 358.652772-498.120317C1049.846551 235.005885 814.840666 0 524.897676 0z" ></path>
</svg>