<svg viewBox="0 0 1024 1024" version="1.1" xmlns="http://www.w3.org/2000/svg" p-id="1495" width="28" height="28">
    <path d="M453.888 91.936a95.424 95.424 0 0 1 134.976 0l34.08 34.08a128 128 0 0 0 90.496 37.504h70.368a95.424 95.424 0 0 1 95.424 95.424v70.368a128 128 0 0 0 37.504 90.496l34.048 34.08a95.424 95.424 0 0 1 0 134.976l-34.048 34.08a128 128 0 0 0-37.504 90.496v70.368a95.424 95.424 0 0 1-95.424 95.424h-70.368a128 128 0 0 0-90.496 37.504l-34.08 34.048a95.424 95.424 0 0 1-134.976 0l-34.08-34.048a128 128 0 0 0-90.496-37.504H258.944a95.424 95.424 0 0 1-95.424-95.424v-70.368a128 128 0 0 0-37.504-90.496l-34.08-34.08a95.424 95.424 0 0 1 0-134.976l34.08-34.08a128 128 0 0 0 37.504-90.496V258.944A95.424 95.424 0 0 1 258.944 163.52h70.368a128 128 0 0 0 90.496-37.504l34.08-34.08z"  data-spm-anchor-id="a313x.7781069.0.i0" class="setting-change"></path>
    <path d="M630.08 630.144m-71.584 0a71.584 71.584 0 1 0 143.168 0 71.584 71.584 0 1 0-143.168 0Z" fill="#2A8B54" p-id="1497"></path>
    <path d="M391.584 391.584m-71.584 0a71.584 71.584 0 1 0 143.168 0 71.584 71.584 0 1 0-143.168 0Z" fill="#2A8B54" p-id="1498"></path>
    <path d="M687.744 333.984a47.712 47.712 0 0 1 0 67.456l-286.304 286.304a47.712 47.712 0 0 1-67.456-67.488l286.272-286.272a47.712 47.712 0 0 1 67.488 0z" fill="#2A8B54" p-id="1499"></path>
</svg>