<svg width="89" height="89" viewBox="0 0 89 89" fill="none" xmlns="http://www.w3.org/2000/svg">
<circle cx="44.1963" cy="44.1533" r="42" stroke="#2A8B54" stroke-width="4"/>
<path d="M59.4151 40.1345L46.0815 26.801C45.0402 25.7596 43.3522 25.7596 42.3108 26.801L28.9773 40.1345C27.9359 41.1758 27.9359 42.8639 28.9773 43.9052C30.0186 44.9466 31.7067 44.9466 32.748 43.9052L41.5295 35.1237L41.5295 60.6868C41.5295 62.1601 42.7229 63.3535 44.1963 63.3535C45.6696 63.3535 46.863 62.1601 46.863 60.6868L46.863 35.1237L55.6445 43.9052C56.1645 44.4253 56.8472 44.6866 57.5299 44.6866C58.2126 44.6866 58.8952 44.4266 59.4153 43.9052C60.4566 42.8639 60.4566 41.1758 59.4153 40.1345L59.4151 40.1345Z" fill="#2A8B54"/>
</svg>
