<svg width="24" height="21" viewBox="0 0 24 21" fill="currentColor" xmlns="http://www.w3.org/2000/svg">
    <path d="M23.3571 0.0252841L0.289743 8.44163C0.2035 8.47998 0.130226 8.54253 0.078799 8.6217C0.0273723 8.70088 0 8.79327 0 8.88769C0 8.98211 0.0273723 9.07451 0.078799 9.15368C0.130226 9.23285 0.2035 9.29541 0.289743 9.33376L5.70745 11.8082L8.31536 19.1304C8.34326 19.2057 8.39388 19.2704 8.4602 19.3157C8.52652 19.3609 8.60526 19.3844 8.68551 19.3829H8.70234C8.78269 19.3805 8.85985 19.3508 8.92106 19.2987L13.0601 15.9322L10.3849 13.9122L19.0162 20.2245C19.0814 20.2708 19.1569 20.3003 19.2362 20.3105C19.3155 20.3207 19.3961 20.3112 19.4708 20.283C19.5456 20.2547 19.6123 20.2085 19.665 20.1484C19.7178 20.0883 19.755 20.0162 19.7733 19.9383L23.9964 0.547098C24.0064 0.465292 23.9955 0.382298 23.9647 0.305851C23.9339 0.229404 23.8843 0.161992 23.8205 0.109899C23.7567 0.0578062 23.6807 0.0227274 23.5997 0.00793194C23.5186 -0.00686351 23.4352 -0.000894241 23.3571 0.0252841ZM8.70234 17.5818L6.44776 11.5052L19.2517 3.66114L9.71185 13.4914C9.66848 13.5411 9.63429 13.5981 9.6109 13.6598L8.70234 17.5818Z" />
</svg>