<svg width="24" height="20" viewBox="0 0 24 20" fill="currentColor" xmlns="http://www.w3.org/2000/svg">
    <path d="M21.8971 4.7538C21.8971 13.3042 16.283 19.4612 8.02572 19.7315C4.53376 20.0017 2.14148 18.9401 0 17.3381C2.39228 17.6083 5.61415 16.817 7.19614 15.1957C4.80386 15.1957 3.45338 13.8446 2.66238 12.011H4.80386C2.66238 11.2004 1.0418 9.59838 1.0418 6.93483C1.5627 7.20504 2.10289 7.45596 3.18328 7.45596C1.3119 6.3944 0.250804 2.9202 1.58199 0.77778C3.97428 3.44133 6.90675 5.85397 11.7492 6.10488C10.3987 0.77778 17.3633 -1.92437 20.2958 1.56912C21.6463 1.29891 22.4373 0.77778 23.4791 0.218048C23.209 1.56912 22.418 2.36047 21.3376 2.8816C22.3987 2.8816 23.209 2.61138 24 2.09025C23.7492 3.15181 22.6881 4.23268 21.8971 4.7538Z" />
</svg>